# xmcd
#
# Track frame offsets: 
#        150
#        19582
#        38499
#        57979
#        88956
#        109859
#        128086
#        145998
#        160882
#        182075
#        199667
#        219997
#        241547
#        267897
#        286108
#        304956
#        326629
#        341264
#
# Disc length: 4788 seconds
#
# Revision: 0
# Processed by: cddbd v1.5.2PL0 Copyright (c) Steve Scherf et al.
# Submitted via: ExactAudioCopy v1.3
#
DISCID=f912b212
DTITLE=Various Artist - Akella Presents - vol. 149 - Electric Blues  
DTITLE=CD1
DYEAR=2018
DGENRE=Blues
TTITLE0=Mark Salllings - Rich Man's Woman
TTITLE1=Jeremiah Johnson - Here We Go Again
TTITLE2=Jimmy Morello - What Is Going On
TTITLE3=Johnny Nicholas - Play Me Like You Play Your Guitar
TTITLE4=Woodleg Odd - Packed My Stuff
TTITLE5=Lefthand Freddy - Hey G
TTITLE6=Texas Slim - And It Is
TTITLE7=Mike Reilly - I Forget To Forget You
TTITLE8=Tinsley Ellis - You Picked A Good Time
TTITLE9=Alex Jenkins - Look What the Cat Dragged In
TTITLE10=Al Basile - Don't Sleep on Santa
TTITLE11=Los Lonely Boys - I Never Met A Woman
TTITLE12=The Radio Kings - My Day of Reckoning
TTITLE13=The Rides - My Babe
TTITLE14=Dr. John - Soulful Warrior
TTITLE15=Duke Robillard - Glamour Girl
TTITLE16=Mannish Boys - Bed for My Soul
TTITLE17=Bluebirds - First You Cry
EXTD=
EXTT0=
EXTT1=
EXTT2=
EXTT3=
EXTT4=
EXTT5=
EXTT6=
EXTT7=
EXTT8=
EXTT9=
EXTT10=
EXTT11=
EXTT12=
EXTT13=
EXTT14=
EXTT15=
EXTT16=
EXTT17=
PLAYORDER=
